<svg data-v-fde0c5aa="" xmlns="http://www.w3.org/2000/svg" viewBox="0 0 300 300" class="font"><!----><defs data-v-fde0c5aa=""><!----></defs><rect data-v-fde0c5aa="" fill="transparent" x="0" y="0" width="300px" height="300px" class="logo-background-square"></rect><defs data-v-fde0c5aa=""><linearGradient data-v-fde0c5aa="" gradientTransform="rotate(25)" id="b30654f9-6e51-4414-acc8-8b7434d1de5b" x1="0%" y1="0%" x2="100%" y2="0%"><stop data-v-fde0c5aa="" offset="0%" stop-color="#288B58" stop-opacity="1"></stop><stop data-v-fde0c5aa="" offset="100%" stop-color="#1522F1" stop-opacity="1"></stop></linearGradient></defs><g data-v-fde0c5aa="" id="b54ee289-94c5-4e46-960d-78b3c782fac0" fill="url(#b30654f9-6e51-4414-acc8-8b7434d1de5b)" transform="matrix(2.939604333748682,0,0,2.939604333748682,37.73650471908202,122.17664453252071)"><path d="M4.87 14.52C6.57 14.52 7.74 13.66 8.40 12.25L7.13 11.48C6.78 12.43 6.03 13.10 4.87 13.10C3.37 13.10 2.45 12.01 2.45 10.21L2.45 8.72C2.45 6.92 3.37 5.82 4.87 5.82C6.01 5.82 6.69 6.43 7.03 7.35L8.36 6.62C7.70 5.17 6.57 4.41 4.87 4.41C2.32 4.41 0.77 6.19 0.77 9.46C0.77 12.74 2.32 14.52 4.87 14.52ZM16.16 14.35L16.16 13.10L15.39 13.10L15.39 9.45C15.39 7.83 14.34 6.90 12.46 6.90C11.05 6.90 10.19 7.50 9.72 8.32L10.63 9.14C10.99 8.57 11.51 8.15 12.36 8.15C13.38 8.15 13.86 8.67 13.86 9.55L13.86 10.16L12.54 10.16C10.51 10.16 9.44 10.91 9.44 12.35C9.44 13.66 10.29 14.52 11.79 14.52C12.85 14.52 13.64 14.04 13.92 13.13L13.99 13.13C14.08 13.85 14.50 14.35 15.30 14.35ZM12.22 13.36C11.47 13.36 10.99 13.02 10.99 12.38L10.99 12.12C10.99 11.49 11.51 11.14 12.57 11.14L13.86 11.14L13.86 12.19C13.86 12.91 13.16 13.36 12.22 13.36ZM19.18 14.35L19.18 9.70C19.18 8.95 19.85 8.54 21.06 8.54L21.66 8.54L21.66 7.07L21.25 7.07C20.09 7.07 19.46 7.73 19.25 8.47L19.18 8.47L19.18 7.07L17.65 7.07L17.65 14.35ZM25.80 14.52C27.16 14.52 28.22 13.93 28.77 13.05L27.87 12.17C27.45 12.84 26.85 13.26 25.96 13.26C24.72 13.26 24.04 12.46 24.04 11.34L24.04 11.10L29.04 11.10L29.04 10.53C29.04 8.51 27.94 6.90 25.80 6.90C23.73 6.90 22.46 8.39 22.46 10.71C22.46 13.03 23.73 14.52 25.80 14.52ZM25.80 8.09C26.81 8.09 27.43 8.83 27.43 9.95L27.43 10.09L24.04 10.09L24.04 10.00C24.04 8.88 24.75 8.09 25.80 8.09ZM40.70 14.35L42.60 14.35L40.68 12.28C40.96 11.75 41.19 11.10 41.33 10.39L42.28 10.39L42.28 9.10L40.19 9.10C40.15 9.86 40.01 10.63 39.75 11.30L37.84 9.24C39.00 8.57 39.97 7.84 39.97 6.57C39.97 5.26 38.89 4.41 37.38 4.41C35.77 4.41 34.71 5.45 34.71 6.76C34.71 7.63 35.20 8.40 35.81 9.06C34.75 9.66 33.82 10.40 33.82 11.80C33.82 13.33 34.93 14.52 36.96 14.52C38.44 14.52 39.30 13.85 39.79 13.36ZM37.38 5.63C38.05 5.63 38.50 5.99 38.50 6.65L38.50 6.76C38.50 7.45 37.86 7.97 37.07 8.40C36.50 7.77 36.18 7.31 36.18 6.83L36.18 6.72C36.18 6.06 36.71 5.63 37.38 5.63ZM37.14 13.22C36.05 13.22 35.39 12.63 35.39 11.75L35.39 11.56C35.39 10.72 35.88 10.30 36.58 9.91L38.96 12.47C38.51 12.94 37.93 13.22 37.14 13.22ZM51.02 14.52C52.71 14.52 53.89 13.66 54.54 12.25L53.27 11.48C52.92 12.43 52.18 13.10 51.02 13.10C49.52 13.10 48.59 12.01 48.59 10.21L48.59 8.72C48.59 6.92 49.52 5.82 51.02 5.82C52.15 5.82 52.84 6.43 53.17 7.35L54.50 6.62C53.84 5.17 52.71 4.41 51.02 4.41C48.47 4.41 46.91 6.19 46.91 9.46C46.91 12.74 48.47 14.52 51.02 14.52ZM60.52 14.35L62.05 14.35L62.05 7.07L60.52 7.07L60.52 11.94C60.52 12.80 59.75 13.20 58.97 13.20C58.03 13.20 57.57 12.61 57.57 11.51L57.57 7.07L56.04 7.07L56.04 11.70C56.04 13.50 56.92 14.52 58.42 14.52C59.63 14.52 60.20 13.86 60.47 13.15L60.52 13.15ZM65.76 14.35L65.76 9.70C65.76 8.95 66.43 8.54 67.63 8.54L68.24 8.54L68.24 7.07L67.83 7.07C66.67 7.07 66.04 7.73 65.83 8.47L65.76 8.47L65.76 7.07L64.23 7.07L64.23 14.35ZM72.38 14.52C73.74 14.52 74.80 13.93 75.35 13.05L74.45 12.17C74.03 12.84 73.43 13.26 72.53 13.26C71.30 13.26 70.62 12.46 70.62 11.34L70.62 11.10L75.61 11.10L75.61 10.53C75.61 8.51 74.52 6.90 72.38 6.90C70.31 6.90 69.03 8.39 69.03 10.71C69.03 13.03 70.31 14.52 72.38 14.52ZM72.38 8.09C73.39 8.09 74.00 8.83 74.00 9.95L74.00 10.09L70.62 10.09L70.62 10.00C70.62 8.88 71.33 8.09 72.38 8.09Z"></path></g><!----><!----></svg>